# xmcd CD database file
#
# Track frame offsets:
#	150
#	17392
#	37551
#	77363
#	98195
#	125232
#
# Disc length: 2034 seconds
#
# Revision: 0
# Processed by: cddbd v1.5.2PL0 Copyright (c) Steve Scherf et al.
# Submitted via: CDex 1.70beta2
#
DISCID=3507f006
DTITLE=Takashi Kako - Micro Worlds
DYEAR=1900
DGENRE=Jazz
TTITLE0=Ants
TTITLE1=Inori
TTITLE2=Acid: Indigestion
TTITLE3=Micro Worlds
TTITLE4=Melody
TTITLE5=Pinchi#4
EXTD=
EXTT0=
EXTT1=
EXTT2=
EXTT3=
EXTT4=
EXTT5=
PLAYORDER=
